<svg xmlns="http://www.w3.org/2000/svg" viewBox="0 0 300 300">
  <path d="M216,197.13l40.07,40.08a13.33,13.33,0,0,1-18.85,18.85L197.14,216A13.34,13.34,0,0,1,216,197.13ZM62.79,43.93,102.86,84A13.34,13.34,0,1,1,84,102.86L43.93,62.79A13.33,13.33,0,0,1,62.78,43.93ZM197.14,84l40.07-40.07a13.33,13.33,0,0,1,18.86,18.85L216,102.86A13.34,13.34,0,0,1,197.13,84ZM43.93,237.21,84,197.14A13.34,13.34,0,0,1,102.87,216L62.79,256.07a13.33,13.33,0,0,1-18.85-18.85ZM163.33,230v56.67a13.33,13.33,0,0,1-26.66,0V230a13.33,13.33,0,0,1,26.66,0Zm0-216.67V70a13.33,13.33,0,0,1-26.66,0V13.33a13.33,13.33,0,0,1,26.66,0ZM230,136.67h56.67a13.33,13.33,0,0,1,0,26.66H230a13.33,13.33,0,0,1,0-26.66Zm-216.67,0H70a13.33,13.33,0,0,1,0,26.66H13.33a13.33,13.33,0,0,1,0-26.66Z" fill-rule="evenodd"/>
</svg>
