<svg xmlns="http://www.w3.org/2000/svg" viewBox="0 0 300 300">
  <path d="M150,176.25a26.25,26.25,0,1,1-26.25,26.25A26.08,26.08,0,0,1,150,176.25Zm0-22.5a48.75,48.75,0,1,0,48.75,48.75A48.92,48.92,0,0,0,150,153.75ZM78.75,22.5h127.5V105H78.75Zm-52.5,0h30v93.75A11.25,11.25,0,0,0,67.5,127.5h150a11.25,11.25,0,0,0,11.25-11.25V27.19L277.5,75.94V273.75a3.52,3.52,0,0,1-3.75,3.75H26.25a3.52,3.52,0,0,1-3.75-3.75V26.25A3.52,3.52,0,0,1,26.25,22.5Zm0-22.5A26.45,26.45,0,0,0,0,26.25v247.5A26.45,26.45,0,0,0,26.25,300h247.5A26.45,26.45,0,0,0,300,273.75V71.25a11.26,11.26,0,0,0-3.28-8l-60-60a11.26,11.26,0,0,0-8-3.28Z"/>
</svg>
